<?xml version="1.0" encoding="UTF-8" standalone="no"?>
<!-- translate-xy="150,138" -->

<svg
   xmlns:dc="http://purl.org/dc/elements/1.1/"
   xmlns:cc="http://creativecommons.org/ns#"
   xmlns:rdf="http://www.w3.org/1999/02/22-rdf-syntax-ns#"
   xmlns:svg="http://www.w3.org/2000/svg"
   xmlns="http://www.w3.org/2000/svg"
   xmlns:sodipodi="http://sodipodi.sourceforge.net/DTD/sodipodi-0.dtd"
   xmlns:inkscape="http://www.inkscape.org/namespaces/inkscape"
   width="300"
   height="300"
   viewBox="0 0 300 300"
   version="1.1"
   id="svg8"
   sodipodi:docname="traditional-no-frame.svg"
   inkscape:version="0.92.3 (2405546, 2018-03-11)">
  <metadata
     id="metadata14">
    <rdf:RDF>
      <cc:Work
         rdf:about="">
        <dc:format>image/svg+xml</dc:format>
        <dc:type
           rdf:resource="http://purl.org/dc/dcmitype/StillImage" />
        <dc:title></dc:title>
      </cc:Work>
    </rdf:RDF>
  </metadata>
  <defs
     id="defs12" />
  <sodipodi:namedview
     pagecolor="#ffffff"
     bordercolor="#666666"
     borderopacity="1"
     objecttolerance="10"
     gridtolerance="10"
     guidetolerance="10"
     inkscape:pageopacity="0"
     inkscape:pageshadow="2"
     inkscape:window-width="1280"
     inkscape:window-height="737"
     id="namedview10"
     showgrid="false"
     inkscape:zoom="1.5733333"
     inkscape:cx="184.76554"
     inkscape:cy="177.89305"
     inkscape:window-x="-8"
     inkscape:window-y="-8"
     inkscape:window-maximized="1"
     inkscape:current-layer="svg8"
     inkscape:showpageshadow="false" />
<g transform="translate(45.4, 233.8) rotate(-125) "> <g
     aria-label="o"
     transform="scale(0.94371432,1.0596427)"
     style="font-style:normal;font-weight:normal;font-size:11.37992573px;line-height:1.25;font-family:sans-serif;letter-spacing:0px;word-spacing:0px;fill:#931cab;fill-opacity:1;stroke:none;stroke-width:0.28449804"
     id="text826">
    <path
       d="m 9.0346344,7.1150545 q 2.3976526,0 4.3227756,1.085069 1.925122,1.0850691 3.010191,3.0276925 1.10257,1.925123 1.10257,4.357778 0,2.432654 -1.10257,4.375278 -1.085069,1.925123 -3.010191,3.010192 -1.925123,1.085069 -4.3227756,1.085069 -2.3976526,0 -4.3227751,-1.085069 -1.9251226,-1.085069 -3.0276928,-3.010192 -1.08506902,-1.942624 -1.08506902,-4.375278 0,-2.432655 1.08506902,-4.357778 1.1025702,-1.9426234 3.0276928,-3.0276925 1.9251225,-1.085069 4.3227751,-1.085069 z m 0,2.5901648 q -1.6976081,0 -2.9926905,0.7525477 -1.2775813,0.735047 -1.9776259,2.082633 -0.7000445,1.330084 -0.7000445,3.045194 0,1.715109 0.7000445,3.062695 0.7000446,1.330084 1.9776259,2.082632 1.2950824,0.735047 2.9926905,0.735047 1.6976076,0 2.9751896,-0.735047 1.295082,-0.752548 1.995127,-2.082632 0.700044,-1.347586 0.700044,-3.062695 0,-1.71511 -0.700044,-3.045194 Q 13.304906,11.192814 12.009824,10.457767 10.732242,9.7052193 9.0346344,9.7052193 Z"
       style="font-style:normal;font-variant:normal;font-weight:normal;font-stretch:normal;font-size:35.84228134px;font-family:'Courier Prime';-inkscape-font-specification:'Courier Prime';fill:#931cab;fill-opacity:1;stroke-width:0.28449804"
       id="path10" />
  </g>

 </g><g transform="translate(32.3, 213.9) rotate(-115) "> <g
     aria-label="n"
     transform="scale(0.90702758,1.1025023)"
     style="font-style:normal;font-weight:normal;font-size:10.93753242px;line-height:1.25;font-family:sans-serif;letter-spacing:0px;word-spacing:0px;fill:#931cab;fill-opacity:1;stroke:none;stroke-width:0.27343822"
     id="text826">
    <path
       d="m 10.899861,6.8384571 c 1.020459,0 1.906353,0.2242768 2.65768,0.6728304 0.751327,0.4373397 1.32884,1.0709217 1.732539,1.9007459 0.403698,0.8298246 0.605547,1.7998216 0.605547,2.9099916 v 8.141248 h 0.965864 c 0.38127,0 0.650403,0.08971 0.807397,0.269132 0.168207,0.168208 0.252311,0.459768 0.252311,0.87468 0,0.414912 -0.0841,0.712079 -0.252311,0.8915 -0.156994,0.168207 -0.426127,0.252311 -0.807397,0.252311 h -5.036488 c -0.381271,0 -0.65601,-0.0841 -0.824217,-0.252311 -0.156994,-0.179421 -0.235491,-0.476588 -0.235491,-0.8915 0,-0.414912 0.0785,-0.706472 0.235491,-0.87468 0.168207,-0.179421 0.442946,-0.269132 0.824217,-0.269132 h 1.54751 v -7.888937 c 0,-0.998031 -0.229884,-1.788607 -0.689651,-2.371727 -0.459767,-0.5831196 -1.138205,-0.8746794 -2.035312,-0.8746794 -0.9531765,0 -1.8446769,0.2747391 -2.674501,0.8242174 -0.8186103,0.549478 -1.47462,1.306412 -1.968029,2.270803 -0.493409,0.96439 -0.7401135,2.040919 -0.7401135,3.229586 v 4.810737 h 1.54751 c 0.3812706,0 0.6504028,0.08971 0.8073965,0.269132 0.1682076,0.168208 0.2523114,0.459768 0.2523114,0.87468 0,0.414912 -0.084104,0.712079 -0.2523114,0.8915 -0.1569937,0.168207 -0.4261259,0.252311 -0.8073965,0.252311 H 1.8448349 c -0.3812706,0 -0.6560097,-0.0841 -0.8242173,-0.252311 -0.15699375,-0.179421 -0.23549063,-0.476588 -0.23549063,-0.8915 0,-0.414912 0.0784969,-0.706472 0.23549063,-0.87468 0.1682076,-0.179421 0.4429467,-0.269132 0.8242173,-0.269132 H 2.7417925 V 9.4961372 H 1.5084197 c -0.3812706,0 -0.65600969,-0.084104 -0.82421729,-0.2523114 C 0.52720864,9.0644044 0.44871176,8.7672376 0.44871176,8.3523255 c 0,-0.4149121 0.0784969,-0.7064719 0.23549065,-0.8746795 C 0.85241001,7.2982245 1.1271491,7.2085138 1.5084197,7.2085138 H 4.036991 c 0.3812706,0 0.6504028,0.089711 0.8073965,0.2691322 0.1682076,0.1682076 0.2523114,0.4597674 0.2523114,0.8746795 V 10.370817 C 5.8368124,9.2270051 6.7002781,8.3523255 7.687096,7.7467781 8.6851278,7.1412308 9.7560495,6.8384571 10.899861,6.8384571 Z"
       style="font-style:normal;font-variant:normal;font-weight:normal;font-stretch:normal;font-size:34.44891739px;font-family:'Courier Prime';-inkscape-font-specification:'Courier Prime';fill:#931cab;fill-opacity:1;stroke-width:0.27343822"
       id="path10"
       inkscape:connector-curvature="0"
       sodipodi:nodetypes="scsscscscsscscscssscsscscscsscscsccscscsscsccs" />
  </g>

 </g><g transform="translate(22.6, 193) rotate(-105) "> <g
     aria-label="l"
     transform="scale(0.94280658,1.0606629)"
     style="font-style:normal;font-weight:normal;font-size:11.39088249px;line-height:1.25;font-family:sans-serif;letter-spacing:0px;word-spacing:0px;fill:#931cab;fill-opacity:1;stroke:none;stroke-width:0.28477195"
     id="text826">
    <path
       d="m 9.3548429,0.70896548 c 0.3970739,0 0.6773611,0.0934291 0.8408621,0.28028742 0.17518,0.1751796 0.262769,0.4788243 0.262769,0.9109341 v 19.243237 h 5.435766 c 0.397074,0 0.677362,0.09343 0.840863,0.280288 0.175179,0.175179 0.262769,0.478824 0.262769,0.910934 0,0.43211 -0.08759,0.90826 -0.262769,1.095118 -0.163501,0.175179 -0.443789,0.262769 -0.840863,0.262769 H 2.1601571 c -0.3970739,0 -0.6832006,-0.08759 -0.8583803,-0.262769 -0.1635009,-0.186858 -0.2452514,-0.663008 -0.2452514,-1.095118 0,-0.43211 0.081751,-0.735755 0.2452514,-0.910934 0.1751797,-0.186859 0.4613686,-0.286536 0.8583803,-0.280288 h 5.295622 V 3.2580747 H 2.8608756 c -0.3970739,0 -0.6832006,-0.08759 -0.8583802,-0.2627694 C 1.8389944,2.808447 1.7572439,2.3322967 1.7572439,1.900187 c 0,-0.4321098 0.081751,-0.7357545 0.2452515,-0.9109341 C 2.177675,0.80239462 2.4638017,0.70896548 2.8608756,0.70896548 Z"
       style="font-style:normal;font-variant:normal;font-weight:normal;font-stretch:normal;font-size:35.87678909px;font-family:'Courier Prime';-inkscape-font-specification:'Courier Prime';fill:#931cab;fill-opacity:1;stroke-width:0.28477195"
       id="path10"
       inkscape:connector-curvature="0"
       sodipodi:nodetypes="scscscscsscscsccscscss" />
  </g>

 </g><g transform="translate(17.4, 170.5) rotate(-95) "> <g
     aria-label="y"
     transform="scale(0.87299658,1.1454799)"
     style="font-style:normal;font-weight:normal;font-size:10.52716446px;line-height:1.25;font-family:sans-serif;letter-spacing:0px;word-spacing:0px;fill:#931cab;fill-opacity:1;stroke:none;stroke-width:0.263179"
     id="text826">
    <path
       d="m 17.841713,6.9380575 q 0.550448,0 0.777103,0.2590345 0.242845,0.2428449 0.242845,0.8418622 0,0.5990173 -0.242845,0.8580518 -0.226655,0.2428449 -0.777103,0.2428449 H 16.837954 L 10.216384,22.706784 Q 9.1640567,24.860008 8.160298,26.090422 7.1565392,27.320836 5.893746,27.887474 4.6471424,28.470302 2.8500904,28.53506 2.2834524,28.55125 1.9758489,28.243646 1.6682454,27.952232 1.6682454,27.191319 q 0,-1.052328 0.8580519,-1.100897 1.5542071,-0.08095 2.4608279,-0.518069 0.9228104,-0.437121 1.6837243,-1.505638 0.7771035,-1.052328 1.8941899,-3.30269 L 2.6396249,9.1398509 H 1.6196765 q -0.5504484,0 -0.79329324,-0.2428449 -0.2266552,-0.2590345 -0.2266552,-0.8580518 0,-0.5990173 0.2266552,-0.8418622 Q 1.0692281,6.9380575 1.6196765,6.9380575 h 5.7311386 q 0.5504483,0 0.7771035,0.2590345 0.2428449,0.2428449 0.2428449,0.8418622 0,0.5990173 -0.2428449,0.8580518 Q 7.9012634,9.1398509 7.3508151,9.1398509 H 5.278539 L 9.8440223,18.238438 14.19904,9.1398509 h -1.440879 q -0.550449,0 -0.793294,-0.2428449 -0.226655,-0.2590345 -0.226655,-0.8580518 0,-0.5990173 0.226655,-0.8418622 0.242845,-0.2590345 0.793294,-0.2590345 z"
       style="font-style:normal;font-variant:normal;font-weight:normal;font-stretch:normal;font-size:33.15641785px;font-family:'Courier Prime';-inkscape-font-specification:'Courier Prime';fill:#931cab;fill-opacity:1;stroke-width:0.263179"
       id="path10" />
  </g>

 </g><g transform="translate(18.4, 123.7) rotate(-75) "> <g
     id="g820">
    <path
       id="path816"
       d="M 13.591162,19.794944 8.685503,16.514335 3.9276069,20.005798 5.5317204,14.326475 0.74087086,10.880368 6.6379261,10.650964 8.4349143,5.0296895 l 2.0404667,5.5375425 5.90145,-0.02803 -4.635977,3.651794 z"
       inkscape:transform-center-y="-0.78063196"
       inkscape:transform-center-x="-0.011104478"
       style="opacity:1;fill:#931cab;fill-opacity:1;stroke:none;stroke-width:3.06049562;stroke-linecap:butt;stroke-linejoin:miter;stroke-miterlimit:4;stroke-dasharray:none;stroke-dashoffset:0;stroke-opacity:1;paint-order:fill markers stroke"
       transform="matrix(0.95902108,0.02422922,-0.02529677,1.0012758,0.58892254,0.63860044)" />
  </g>

 </g><g transform="translate(24.8, 101.1) rotate(-65) "> <g
     aria-label="w"
     transform="scale(0.85163651,1.1742099)"
     style="font-style:normal;font-weight:normal;font-size:10.08665943px;line-height:1.25;font-family:sans-serif;letter-spacing:0px;word-spacing:0px;fill:#931cab;fill-opacity:1;stroke:none;stroke-width:0.25216642"
     id="text826">
    <path
       d="m 18.86057,6.7683008 q 0.527415,0 0.744586,0.2481953 0.232683,0.2326831 0.232683,0.8066347 0,0.5739517 -0.232683,0.822147 -0.217171,0.2326831 -0.744586,0.2326831 H 18.488277 L 15.432372,20.434555 q -0.155122,0.558439 -0.465366,0.77561 -0.294732,0.232683 -0.884196,0.232683 -0.667025,0 -1.05483,-0.248195 -0.372293,-0.232683 -0.558439,-0.760098 l -2.373368,-6.732298 -2.4043919,6.732298 q -0.1861465,0.527415 -0.5894639,0.760098 -0.3878051,0.248195 -1.05483,0.248195 -0.5894639,0 -0.8841958,-0.232683 -0.2947319,-0.217171 -0.4343418,-0.77561 L 1.7350937,8.8779609 H 1.455874 q -0.527415,0 -0.7600981,-0.2326831 -0.21717089,-0.2481953 -0.21717089,-0.822147 0,-0.5739516 0.21717089,-0.8066347 Q 0.928459,6.7683008 1.455874,6.7683008 h 4.5605888 q 0.527415,0 0.7445859,0.2481953 0.2326831,0.2326831 0.2326831,0.8066347 0,0.5739517 -0.2326831,0.822147 Q 6.5438778,8.8779609 6.0164628,8.8779609 H 4.1084614 l 2.2337577,9.0281041 2.5905385,-7.197664 q 0.1085854,-0.325756 0.4033174,-0.527415 0.2947319,-0.2016585 0.77561,-0.2016585 0.977269,0 1.19444,0.6204885 l 2.575027,7.306249 2.295806,-9.0281041 h -1.566733 q -0.527415,0 -0.760098,-0.2326831 -0.217171,-0.2481953 -0.217171,-0.822147 0,-0.5739516 0.217171,-0.8066347 0.232683,-0.2481953 0.760098,-0.2481953 z"
       style="font-style:normal;font-variant:normal;font-weight:normal;font-stretch:normal;font-size:31.7689991px;font-family:'Courier Prime';-inkscape-font-specification:'Courier Prime';fill:#931cab;fill-opacity:1;stroke-width:0.25216642"
       id="path10" />
  </g>

 </g><g transform="translate(35.1, 80.3) rotate(-55) "> <g
     aria-label="a"
     transform="scale(0.86789654,1.1522111)"
     style="font-style:normal;font-weight:normal;font-size:11.56789494px;line-height:1.25;font-family:sans-serif;letter-spacing:0px;word-spacing:0px;fill:#931cab;fill-opacity:1;stroke:none;stroke-width:0.28919727"
     id="text826">
    <path
       d="m 9.3972559,4.9398581 q 3.3445561,0 5.0168341,1.494376 1.672278,1.4943761 1.672278,4.4297579 v 7.080496 q 0,1.405425 1.174152,1.405425 h 0.622657 q 0.604866,0 0.853929,0.284643 0.266853,0.266853 0.266853,0.92509 0,0.658237 -0.266853,0.94288 -0.249063,0.266853 -0.853929,0.266853 h -1.138572 q -1.156363,0 -1.992502,-0.569286 -0.818348,-0.587077 -1.067411,-1.707859 -1.458796,1.280894 -3.166654,1.974711 -1.6900682,0.693818 -3.5936186,0.693818 -1.7968093,0 -3.1844442,-0.604867 -1.3698447,-0.622656 -2.1526131,-1.796809 -0.78276835,-1.174153 -0.78276835,-2.79306 0,-2.81085 2.01029155,-4.145114 2.0102916,-1.352055 5.1947358,-1.352055 2.8286399,0 5.4082179,0.9073 v -1.512166 q 0,-1.7256489 -0.97846,-2.5262074 -0.960671,-0.8183488 -3.1132838,-0.8183488 -1.3342643,0 -2.7752698,0.373594 -1.4410055,0.373594 -2.7396894,1.031831 -0.3024332,0.1601118 -0.5514959,0.1601118 -0.5870763,0 -0.9784605,-0.8539292 -0.1956921,-0.4269646 -0.1956921,-0.7116076 0,-0.6226567 0.6582371,-0.9606703 Q 4.2381006,5.7759971 5.9459589,5.3668227 7.6716074,4.9398581 9.3972559,4.9398581 Z M 8.0274112,13.977275 q -2.0458719,0 -3.2378147,0.711608 -1.1741526,0.693817 -1.1741526,2.223774 0,1.298683 0.8895096,2.028081 0.9072997,0.711608 2.5262071,0.711608 3.5402484,0 6.3866784,-2.935382 v -1.93913 Q 12.208106,14.386449 10.820471,14.190757 9.4328363,13.977275 8.0274112,13.977275 Z"
       style="font-style:normal;font-variant:normal;font-weight:normal;font-stretch:normal;font-size:36.43431091px;font-family:'Courier Prime';-inkscape-font-specification:'Courier Prime';fill:#931cab;fill-opacity:1;stroke-width:0.28919727"
       id="path10" />
  </g>

 </g><g transform="translate(49.3, 61.3) rotate(-45) "> <g
     aria-label="y"
     transform="scale(0.87299658,1.1454799)"
     style="font-style:normal;font-weight:normal;font-size:10.52716446px;line-height:1.25;font-family:sans-serif;letter-spacing:0px;word-spacing:0px;fill:#931cab;fill-opacity:1;stroke:none;stroke-width:0.263179"
     id="text826">
    <path
       d="m 17.841713,6.9380575 q 0.550448,0 0.777103,0.2590345 0.242845,0.2428449 0.242845,0.8418622 0,0.5990173 -0.242845,0.8580518 -0.226655,0.2428449 -0.777103,0.2428449 H 16.837954 L 10.216384,22.706784 Q 9.1640567,24.860008 8.160298,26.090422 7.1565392,27.320836 5.893746,27.887474 4.6471424,28.470302 2.8500904,28.53506 2.2834524,28.55125 1.9758489,28.243646 1.6682454,27.952232 1.6682454,27.191319 q 0,-1.052328 0.8580519,-1.100897 1.5542071,-0.08095 2.4608279,-0.518069 0.9228104,-0.437121 1.6837243,-1.505638 0.7771035,-1.052328 1.8941899,-3.30269 L 2.6396249,9.1398509 H 1.6196765 q -0.5504484,0 -0.79329324,-0.2428449 -0.2266552,-0.2590345 -0.2266552,-0.8580518 0,-0.5990173 0.2266552,-0.8418622 Q 1.0692281,6.9380575 1.6196765,6.9380575 h 5.7311386 q 0.5504483,0 0.7771035,0.2590345 0.2428449,0.2428449 0.2428449,0.8418622 0,0.5990173 -0.2428449,0.8580518 Q 7.9012634,9.1398509 7.3508151,9.1398509 H 5.278539 L 9.8440223,18.238438 14.19904,9.1398509 h -1.440879 q -0.550449,0 -0.793294,-0.2428449 -0.226655,-0.2590345 -0.226655,-0.8580518 0,-0.5990173 0.226655,-0.8418622 0.242845,-0.2590345 0.793294,-0.2590345 z"
       style="font-style:normal;font-variant:normal;font-weight:normal;font-stretch:normal;font-size:33.15641785px;font-family:'Courier Prime';-inkscape-font-specification:'Courier Prime';fill:#931cab;fill-opacity:1;stroke-width:0.263179"
       id="path10" />
  </g>

 </g><g transform="translate(85.7, 32.2) rotate(-25) "> <g
     id="g820">
    <path
       id="path816"
       d="M 13.591162,19.794944 8.685503,16.514335 3.9276069,20.005798 5.5317204,14.326475 0.74087086,10.880368 6.6379261,10.650964 8.4349143,5.0296895 l 2.0404667,5.5375425 5.90145,-0.02803 -4.635977,3.651794 z"
       inkscape:transform-center-y="-0.78063196"
       inkscape:transform-center-x="-0.011104478"
       style="opacity:1;fill:#931cab;fill-opacity:1;stroke:none;stroke-width:3.06049562;stroke-linecap:butt;stroke-linejoin:miter;stroke-miterlimit:4;stroke-dasharray:none;stroke-dashoffset:0;stroke-opacity:1;paint-order:fill markers stroke"
       transform="matrix(0.95902108,0.02422922,-0.02529677,1.0012758,0.58892254,0.63860044)" />
  </g>

 </g><g transform="translate(107, 22.8) rotate(-15) "> <g
     aria-label="t"
     transform="scale(0.9271539,1.0785696)"
     style="font-style:normal;font-weight:normal;font-size:11.18022919px;line-height:1.25;font-family:sans-serif;letter-spacing:0px;word-spacing:0px;fill:#931cab;fill-opacity:1;stroke:none;stroke-width:0.27950561"
     id="text826">
    <path
       d="m 6.5427998,2.4681767 q 0.704954,0 0.997252,0.2579101 0.292298,0.25791 0.292298,0.8597 v 5.1582003 h 7.0667342 q 0.584596,0 0.825312,0.275104 0.25791,0.25791 0.25791,0.8940881 0,0.6361778 -0.25791,0.9112818 -0.240716,0.25791 -0.825312,0.25791 H 7.8323498 v 6.258617 q 0,1.960116 0.6705661,2.871398 0.68776,0.911282 2.3727721,0.911282 1.151998,0 2.424354,-0.464238 1.272356,-0.464238 2.458742,-1.237968 0.240716,-0.17194 0.533014,-0.17194 0.584596,0 0.997252,0.790924 0.223522,0.447044 0.223522,0.77373 0,0.550208 -0.567402,0.894088 -1.341132,0.842506 -2.991756,1.392714 -1.650624,0.533014 -3.077726,0.533014 -2.9229802,0 -4.2813062,-1.513072 Q 5.2532497,20.590654 5.2532497,17.56451 V 11.082371 H 1.7628675 q -0.5845961,0 -0.84250608,-0.25791 -0.24071601,-0.275104 -0.24071601,-0.9112818 0,-0.6361781 0.24071601,-0.8940881 Q 1.1782714,8.7439871 1.7628675,8.7439871 H 5.2532497 V 3.5857868 q 0,-0.60179 0.292298,-0.8597 0.292298,-0.2579101 0.9972521,-0.2579101 z"
       style="font-style:normal;font-variant:normal;font-weight:normal;font-stretch:normal;font-size:35.21331406px;font-family:'Courier Prime';-inkscape-font-specification:'Courier Prime';fill:#931cab;fill-opacity:1;stroke-width:0.27950561"
       id="path10" />
  </g>

 </g><g transform="translate(130.1, 17.2) rotate(-5) "> <g
     aria-label="o"
     transform="scale(0.94371432,1.0596427)"
     style="font-style:normal;font-weight:normal;font-size:11.37992573px;line-height:1.25;font-family:sans-serif;letter-spacing:0px;word-spacing:0px;fill:#931cab;fill-opacity:1;stroke:none;stroke-width:0.28449804"
     id="text826">
    <path
       d="m 9.0346344,7.1150545 q 2.3976526,0 4.3227756,1.085069 1.925122,1.0850691 3.010191,3.0276925 1.10257,1.925123 1.10257,4.357778 0,2.432654 -1.10257,4.375278 -1.085069,1.925123 -3.010191,3.010192 -1.925123,1.085069 -4.3227756,1.085069 -2.3976526,0 -4.3227751,-1.085069 -1.9251226,-1.085069 -3.0276928,-3.010192 -1.08506902,-1.942624 -1.08506902,-4.375278 0,-2.432655 1.08506902,-4.357778 1.1025702,-1.9426234 3.0276928,-3.0276925 1.9251225,-1.085069 4.3227751,-1.085069 z m 0,2.5901648 q -1.6976081,0 -2.9926905,0.7525477 -1.2775813,0.735047 -1.9776259,2.082633 -0.7000445,1.330084 -0.7000445,3.045194 0,1.715109 0.7000445,3.062695 0.7000446,1.330084 1.9776259,2.082632 1.2950824,0.735047 2.9926905,0.735047 1.6976076,0 2.9751896,-0.735047 1.295082,-0.752548 1.995127,-2.082632 0.700044,-1.347586 0.700044,-3.062695 0,-1.71511 -0.700044,-3.045194 Q 13.304906,11.192814 12.009824,10.457767 10.732242,9.7052193 9.0346344,9.7052193 Z"
       style="font-style:normal;font-variant:normal;font-weight:normal;font-stretch:normal;font-size:35.84228134px;font-family:'Courier Prime';-inkscape-font-specification:'Courier Prime';fill:#931cab;fill-opacity:1;stroke-width:0.28449804"
       id="path10" />
  </g>

 </g><g transform="translate(176.6, 18.7) rotate(15) "> <g
     id="g820">
    <path
       id="path816"
       d="M 13.591162,19.794944 8.685503,16.514335 3.9276069,20.005798 5.5317204,14.326475 0.74087086,10.880368 6.6379261,10.650964 8.4349143,5.0296895 l 2.0404667,5.5375425 5.90145,-0.02803 -4.635977,3.651794 z"
       inkscape:transform-center-y="-0.78063196"
       inkscape:transform-center-x="-0.011104478"
       style="opacity:1;fill:#931cab;fill-opacity:1;stroke:none;stroke-width:3.06049562;stroke-linecap:butt;stroke-linejoin:miter;stroke-miterlimit:4;stroke-dasharray:none;stroke-dashoffset:0;stroke-opacity:1;paint-order:fill markers stroke"
       transform="matrix(0.95902108,0.02422922,-0.02529677,1.0012758,0.58892254,0.63860044)" />
  </g>

 </g><g transform="translate(199, 25.1) rotate(25) "> <g
     aria-label="p"
     transform="scale(0.93866626,1.0653414)"
     style="font-style:normal;font-weight:normal;font-size:11.3190527px;line-height:1.25;font-family:sans-serif;letter-spacing:0px;word-spacing:0px;fill:#931cab;fill-opacity:1;stroke:none;stroke-width:0.28297618"
     id="text826">
    <path
       d="m 9.9323105,7.0769945 c 1.4390195,0 2.7271745,0.3423474 3.8644645,1.0270423 1.13729,0.6730899 2.030875,1.6479097 2.680755,2.9244592 0.649879,1.264945 0.974819,2.756188 0.974819,4.473727 0,1.71754 -0.32494,3.214585 -0.974819,4.491135 -0.64988,1.264945 -1.543465,2.239764 -2.680755,2.924459 -1.13729,0.67309 -2.425445,1.009635 -3.8644645,1.009635 -2.1817397,0 -4.0211319,-0.957412 -5.5181767,-2.872237 v 6.875961 H 4.74487 c 0.3945699,0 0.6730899,0.08704 0.8355599,0.261113 0.1740749,0.18568 0.2611124,0.493212 0.2611124,0.922597 0,0.429385 -0.087038,0.731115 -0.2611124,0.90519 -0.16247,0.18568 -0.44099,0.27852 -0.8355599,0.27852 H 1.2259535 c -0.3945699,0 -0.67889235,-0.09284 -0.85296733,-0.27852 -0.16246995,-0.174075 -0.24370493,-0.475805 -0.24370493,-0.90519 0,-0.429385 0.081235,-0.736917 0.24370493,-0.922597 C 0.54706115,28.018214 0.8313836,27.931176 1.2259535,27.931176 H 1.8030092 V 9.8273791 H 1.5741035 c -0.3945699,0 -0.6788924,-0.087037 -0.85296738,-0.2611125 -0.16246997,-0.18568 -0.24370496,-0.4932125 -0.24370496,-0.9225974 0,-0.4293849 0.081235,-0.7311149 0.24370496,-0.9051898 0.17407498,-0.18568 0.45839748,-0.27852 0.85296738,-0.27852 h 1.569283 c 0.3945699,0 0.6730899,0.09284 0.8355599,0.27852 0.174075,0.1740749 0.2611125,0.4758049 0.2611125,0.9051898 V 10.036269 C 4.9711738,9.0846591 5.8183386,8.3535443 6.7815535,7.8429244 7.7447684,7.3323045 8.7950207,7.0769945 9.9323105,7.0769945 Z m -0.174075,2.5763096 c -1.0328448,0 -1.9554421,0.2321 -2.767792,0.6962999 -0.8007449,0.4642 -1.4332174,1.13729 -1.8974173,2.01927 -0.4525949,0.881979 -0.6788924,1.926429 -0.6788924,3.133349 0,1.20692 0.2262975,2.25137 0.6788924,3.13335 0.4641999,0.88198 1.0966724,1.55507 1.8974173,2.019269 0.8123499,0.4642 1.7349472,0.6963 2.767792,0.6963 1.0328455,0 1.9206275,-0.243705 2.6633475,-0.731115 0.742719,-0.499015 1.305562,-1.189512 1.688527,-2.071492 0.39457,-0.88198 0.591855,-1.897417 0.591855,-3.046312 0,-1.148895 -0.197285,-2.164332 -0.591855,-3.046312 -0.382965,-0.88198 -0.945808,-1.566675 -1.688527,-2.054085 C 11.678863,9.9028114 10.791081,9.6533041 9.7582355,9.6533041 Z"
       style="font-style:normal;font-variant:normal;font-weight:normal;font-stretch:normal;font-size:35.65055466px;font-family:'Courier Prime';-inkscape-font-specification:'Courier Prime';fill:#931cab;fill-opacity:1;stroke-width:0.28297618"
       id="path10"
       inkscape:connector-curvature="0"
       sodipodi:nodetypes="sccsccsccscscsscscsccscscsscscsssccsccsccsccs" />
  </g>

 </g><g transform="translate(219.9, 35.7) rotate(35) "> <g
     aria-label="h"
     transform="scale(0.94733542,1.0555923)"
     style="font-style:normal;font-weight:normal;font-size:11.4149971px;line-height:1.25;font-family:sans-serif;letter-spacing:0px;word-spacing:0px;fill:#931cab;fill-opacity:1;stroke:none;stroke-width:0.28537482"
     id="text826">
    <path
       d="m 3.623558,0.77157807 c 0.3979145,0 0.6787953,0.0936269 0.8426424,0.28088083 0.1755505,0.1755505 0.2633258,0.479838 0.2633258,0.9128626 V 10.707737 C 5.4902451,9.5725102 6.3679976,8.7064609 7.3627838,8.1095892 8.3692733,7.5010141 9.4518347,7.1967266 10.610468,7.1967266 c 1.065007,0 1.989573,0.2340673 2.773698,0.702202 0.784125,0.4564313 1.386849,1.1176716 1.80817,1.9837207 0.421321,0.8660487 0.631982,1.8783907 0.631982,3.0370237 v 8.496645 h 0.515871 c 0.397914,0 0.678795,0.09363 0.842643,0.28088 0.17555,0.175551 0.263325,0.479838 0.263325,0.912863 0,0.433025 -0.08778,0.743164 -0.263325,0.930418 -0.163848,0.17555 -0.444729,0.263325 -0.842643,0.263325 h -4.764193 c -0.397915,0 -0.684647,-0.08778 -0.860198,-0.263325 -0.163847,-0.187254 -0.24577,-0.497393 -0.24577,-0.930418 0,-0.433025 0.08192,-0.737312 0.24577,-0.912863 0.175551,-0.187253 0.462283,-0.28088 0.860198,-0.28088 h 1.615065 v -8.233319 c 0,-1.0416 -0.239919,-1.866687 -0.719758,-2.475262 -0.479838,-0.608575 -1.187892,-0.9128629 -2.124161,-0.9128629 -0.9947859,0 -1.9252035,0.2867329 -2.7912527,0.8601979 -0.8543458,0.573465 -1.5389928,1.363442 -2.0539409,2.369931 -0.5149481,1.00649 -0.7724222,2.130013 -0.7724222,3.37057 v 5.020745 h 1.6150646 c 0.3979145,0 0.6787953,0.09363 0.8426425,0.28088 0.1755505,0.175551 0.2633257,0.479838 0.2633257,0.912863 0,0.433025 -0.087775,0.743164 -0.2633257,0.930418 -0.1638472,0.17555 -0.444728,0.263325 -0.8426425,0.263325 H 1.9102703 c -0.3979144,0 -0.6846469,-0.08778 -0.8601974,-0.263325 -0.16384718,-0.187254 -0.24577075,-0.497393 -0.24577075,-0.930418 0,-0.433025 0.0819236,-0.737312 0.24577075,-0.912863 0.1755505,-0.187253 0.462283,-0.28088 0.8601974,-0.28088 H 2.0962686 V 3.1590649 H 1.7347198 c -0.3979145,0 -0.6846469,-0.087775 -0.86019744,-0.2633257 C 0.71067522,2.7084853 0.62875165,2.3983461 0.62875165,1.9653215 c 0,-0.4330246 0.0819236,-0.7373121 0.24577071,-0.9128626 C 1.0500729,0.86520501 1.3368053,0.77157807 1.7347198,0.77157807 Z"
       style="font-style:normal;font-variant:normal;font-weight:normal;font-stretch:normal;font-size:35.95274353px;font-family:'Courier Prime';-inkscape-font-specification:'Courier Prime';fill:#931cab;fill-opacity:1;stroke-width:0.28537482"
       id="path10"
       inkscape:connector-curvature="0"
       sodipodi:nodetypes="scsccscsscscscsscscscscscsscscscsscscsccscscss" />
  </g>

 </g><g transform="translate(238.6, 49.5) rotate(45) "> <g
     aria-label="o"
     transform="scale(0.94371432,1.0596427)"
     style="font-style:normal;font-weight:normal;font-size:11.37992573px;line-height:1.25;font-family:sans-serif;letter-spacing:0px;word-spacing:0px;fill:#931cab;fill-opacity:1;stroke:none;stroke-width:0.28449804"
     id="text826">
    <path
       d="m 9.0346344,7.1150545 q 2.3976526,0 4.3227756,1.085069 1.925122,1.0850691 3.010191,3.0276925 1.10257,1.925123 1.10257,4.357778 0,2.432654 -1.10257,4.375278 -1.085069,1.925123 -3.010191,3.010192 -1.925123,1.085069 -4.3227756,1.085069 -2.3976526,0 -4.3227751,-1.085069 -1.9251226,-1.085069 -3.0276928,-3.010192 -1.08506902,-1.942624 -1.08506902,-4.375278 0,-2.432655 1.08506902,-4.357778 1.1025702,-1.9426234 3.0276928,-3.0276925 1.9251225,-1.085069 4.3227751,-1.085069 z m 0,2.5901648 q -1.6976081,0 -2.9926905,0.7525477 -1.2775813,0.735047 -1.9776259,2.082633 -0.7000445,1.330084 -0.7000445,3.045194 0,1.715109 0.7000445,3.062695 0.7000446,1.330084 1.9776259,2.082632 1.2950824,0.735047 2.9926905,0.735047 1.6976076,0 2.9751896,-0.735047 1.295082,-0.752548 1.995127,-2.082632 0.700044,-1.347586 0.700044,-3.062695 0,-1.71511 -0.700044,-3.045194 Q 13.304906,11.192814 12.009824,10.457767 10.732242,9.7052193 9.0346344,9.7052193 Z"
       style="font-style:normal;font-variant:normal;font-weight:normal;font-stretch:normal;font-size:35.84228134px;font-family:'Courier Prime';-inkscape-font-specification:'Courier Prime';fill:#931cab;fill-opacity:1;stroke-width:0.28449804"
       id="path10" />
  </g>

 </g><g transform="translate(254.8, 66.5) rotate(55) "> <g
     aria-label="t"
     transform="scale(0.9271539,1.0785696)"
     style="font-style:normal;font-weight:normal;font-size:11.18022919px;line-height:1.25;font-family:sans-serif;letter-spacing:0px;word-spacing:0px;fill:#931cab;fill-opacity:1;stroke:none;stroke-width:0.27950561"
     id="text826">
    <path
       d="m 6.5427998,2.4681767 q 0.704954,0 0.997252,0.2579101 0.292298,0.25791 0.292298,0.8597 v 5.1582003 h 7.0667342 q 0.584596,0 0.825312,0.275104 0.25791,0.25791 0.25791,0.8940881 0,0.6361778 -0.25791,0.9112818 -0.240716,0.25791 -0.825312,0.25791 H 7.8323498 v 6.258617 q 0,1.960116 0.6705661,2.871398 0.68776,0.911282 2.3727721,0.911282 1.151998,0 2.424354,-0.464238 1.272356,-0.464238 2.458742,-1.237968 0.240716,-0.17194 0.533014,-0.17194 0.584596,0 0.997252,0.790924 0.223522,0.447044 0.223522,0.77373 0,0.550208 -0.567402,0.894088 -1.341132,0.842506 -2.991756,1.392714 -1.650624,0.533014 -3.077726,0.533014 -2.9229802,0 -4.2813062,-1.513072 Q 5.2532497,20.590654 5.2532497,17.56451 V 11.082371 H 1.7628675 q -0.5845961,0 -0.84250608,-0.25791 -0.24071601,-0.275104 -0.24071601,-0.9112818 0,-0.6361781 0.24071601,-0.8940881 Q 1.1782714,8.7439871 1.7628675,8.7439871 H 5.2532497 V 3.5857868 q 0,-0.60179 0.292298,-0.8597 0.292298,-0.2579101 0.9972521,-0.2579101 z"
       style="font-style:normal;font-variant:normal;font-weight:normal;font-stretch:normal;font-size:35.21331406px;font-family:'Courier Prime';-inkscape-font-specification:'Courier Prime';fill:#931cab;fill-opacity:1;stroke-width:0.27950561"
       id="path10" />
  </g>

 </g><g transform="translate(267.8, 85.5) rotate(65) "> <g
     aria-label="o"
     transform="scale(0.94371432,1.0596427)"
     style="font-style:normal;font-weight:normal;font-size:11.37992573px;line-height:1.25;font-family:sans-serif;letter-spacing:0px;word-spacing:0px;fill:#931cab;fill-opacity:1;stroke:none;stroke-width:0.28449804"
     id="text826">
    <path
       d="m 9.0346344,7.1150545 q 2.3976526,0 4.3227756,1.085069 1.925122,1.0850691 3.010191,3.0276925 1.10257,1.925123 1.10257,4.357778 0,2.432654 -1.10257,4.375278 -1.085069,1.925123 -3.010191,3.010192 -1.925123,1.085069 -4.3227756,1.085069 -2.3976526,0 -4.3227751,-1.085069 -1.9251226,-1.085069 -3.0276928,-3.010192 -1.08506902,-1.942624 -1.08506902,-4.375278 0,-2.432655 1.08506902,-4.357778 1.1025702,-1.9426234 3.0276928,-3.0276925 1.9251225,-1.085069 4.3227751,-1.085069 z m 0,2.5901648 q -1.6976081,0 -2.9926905,0.7525477 -1.2775813,0.735047 -1.9776259,2.082633 -0.7000445,1.330084 -0.7000445,3.045194 0,1.715109 0.7000445,3.062695 0.7000446,1.330084 1.9776259,2.082632 1.2950824,0.735047 2.9926905,0.735047 1.6976076,0 2.9751896,-0.735047 1.295082,-0.752548 1.995127,-2.082632 0.700044,-1.347586 0.700044,-3.062695 0,-1.71511 -0.700044,-3.045194 Q 13.304906,11.192814 12.009824,10.457767 10.732242,9.7052193 9.0346344,9.7052193 Z"
       style="font-style:normal;font-variant:normal;font-weight:normal;font-stretch:normal;font-size:35.84228134px;font-family:'Courier Prime';-inkscape-font-specification:'Courier Prime';fill:#931cab;fill-opacity:1;stroke-width:0.28449804"
       id="path10" />
  </g>

 </g><g transform="translate(277.1, 107.3) rotate(75) "> <g
     aria-label="g"
     transform="scale(0.9023539,1.1082126)"
     style="font-style:normal;font-weight:normal;font-size:12.02716446px;line-height:1.25;font-family:sans-serif;letter-spacing:0px;word-spacing:0px;fill:#931cab;fill-opacity:1;stroke:none;stroke-width:0.300679"
     id="text826">
    <path
       d="m 8.3946135,5.1359794 c 1.2084377,0 2.3243935,0.271282 3.3478665,0.813846 1.023473,0.5425639 1.923636,1.3194169 2.700489,2.3305588 V 6.8006643 c 0,-0.4562469 0.08632,-0.7768529 0.25895,-0.9618179 0.184965,-0.197296 0.487075,-0.295944 0.906329,-0.295944 h 1.555677 c 0.419254,0 0.715198,0.098648 0.887832,0.295944 0.184966,0.184965 0.277448,0.505571 0.277448,0.9618179 0,0.4562469 -0.09248,0.7830184 -0.277448,0.9803144 -0.172634,0.184965 -0.468578,0.2774475 -0.887832,0.2774475 H 17.032478 V 23.188562 c 0,1.467389 -0.31444,2.725151 -0.943321,3.773286 -0.61655,1.060466 -1.516713,1.868146 -2.700489,2.423041 -1.183776,0.554895 -2.608006,0.832342 -4.272691,0.832342 -1.1837759,0 -2.3798828,-0.104813 -3.5883207,-0.31444 C 4.3192184,29.705495 3.1909319,29.415716 2.142797,29.033455 1.6618881,28.860821 1.4214336,28.53405 1.4214336,28.053141 c 0,-0.197296 0.049324,-0.443916 0.147972,-0.73986 0.221958,-0.678205 0.5733915,-1.017307 1.0543004,-1.017307 0.135641,0 0.271282,0.02466 0.406923,0.07399 0.9618179,0.345268 1.9729598,0.61655 3.0334257,0.813846 1.0604659,0.197296 2.0777734,0.295944 3.0519223,0.295944 1.701678,0 2.984102,-0.406923 3.847272,-1.220769 0.86317,-0.801515 1.294755,-1.90514 1.294755,-3.310874 v -3.717796 c -1.529044,1.923636 -3.483507,2.885454 -5.8633905,2.885454 -1.5290439,0 -2.8977847,-0.339102 -4.1062226,-1.017307 C 3.079953,20.407926 2.130466,19.421446 1.4399301,18.139022 0.74939415,16.856598 0.40412618,15.352216 0.40412618,13.625876 c 0,-1.72634 0.34526797,-3.230722 1.03580392,-4.5131454 C 2.130466,7.8303041 3.079953,6.8499883 4.2883909,6.1717834 5.4968288,5.4812474 6.8655696,5.1359794 8.3946135,5.1359794 Z m 0.184965,2.7374818 c -1.0974589,0 -2.0407804,0.24662 -2.8299643,0.73986 -0.7891839,0.4809089 -1.3934029,1.1591139 -1.8126568,2.0346148 -0.406923,0.86317 -0.6103845,1.855815 -0.6103845,2.977936 0,1.122121 0.2034615,2.120932 0.6103845,2.996433 0.4192539,0.86317 1.0234729,1.541375 1.8126568,2.034615 0.7891839,0.480909 1.7325054,0.721363 2.8299643,0.721363 1.097459,0 2.0716075,-0.228123 2.9224465,-0.68437 0.86317,-0.456247 1.53521,-1.115956 2.016119,-1.979126 0.49324,-0.875501 0.73986,-1.905139 0.73986,-3.088915 0,-1.183776 -0.24662,-2.207249 -0.73986,-3.070419 C 13.037235,9.6799524 12.365195,9.0140786 11.502025,8.5578317 10.651186,8.1015847 9.6770375,7.8734612 8.5795785,7.8734612 Z"
       style="font-style:normal;font-variant:normal;font-weight:normal;font-stretch:normal;font-size:37.88082886px;font-family:'Courier Prime';-inkscape-font-specification:'Courier Prime';fill:#931cab;fill-opacity:1;stroke-width:0.300679"
       id="path10"
       inkscape:connector-curvature="0"
       sodipodi:nodetypes="sscscsscscscscssccscscsscscscssscssccsccsccsccs" />
  </g>

 </g><g transform="translate(282.6, 130) rotate(85) "> <g
     aria-label="r"
     transform="scale(0.95482061,1.0473171)"
     style="font-style:normal;font-weight:normal;font-size:11.51385212px;line-height:1.25;font-family:sans-serif;letter-spacing:0px;word-spacing:0px;fill:#931cab;fill-opacity:1;stroke:none;stroke-width:0.28784621"
     id="text826">
    <path
       d="m 13.819134,7.1987887 c 0.920768,0 1.782513,0.2360944 2.585234,0.7082832 0.472189,0.2833133 0.708283,0.6492596 0.708283,1.0978389 0,0.212485 -0.05312,0.4603841 -0.159364,0.7436974 -0.247899,0.6728688 -0.590236,1.0093038 -1.027011,1.0093038 -0.177071,0 -0.342337,-0.04722 -0.495798,-0.141657 -0.578431,-0.318727 -1.198179,-0.478091 -1.859243,-0.478091 -1.062425,0 -1.999837,0.431525 -3.074067,1.175222 -1.0742296,0.731893 -1.894126,1.652008 -2.5906045,2.879699 -0.6846737,1.227691 -1.0006967,2.53232 -1.0270106,3.913265 v 3.435173 h 5.7709141 c 0.40136,0 0.684673,0.09444 0.84994,0.283313 0.177071,0.177071 0.265606,0.483994 0.265606,0.920769 0,0.436775 -0.08853,0.7496 -0.265606,0.938475 -0.165267,0.177071 -0.44858,0.265606 -0.84994,0.265606 H 1.7053087 c -0.4013605,0 -0.6905761,-0.08854 -0.86764691,-0.265606 -0.16526607,-0.188875 -0.24789911,-0.5017 -0.24789911,-0.938475 0,-0.436775 0.082633,-0.743698 0.24789911,-0.920769 C 1.0147326,21.635961 1.3039482,21.541523 1.7053087,21.541523 H 4.027119 V 9.9965073 H 1.7783198 c -0.4013605,0 -0.6905761,-0.088535 -0.86764687,-0.2656062 C 0.74540686,9.5420256 0.66277382,9.2292005 0.66277382,8.7924259 c 0,-0.4367747 0.082633,-0.7436974 0.24789911,-0.9207682 C 1.0877437,7.6827822 1.3769593,7.5883445 1.7783198,7.5883445 h 3.6122443 c 0.4013605,0 0.6846737,0.094438 0.8499398,0.2833132 0.1770708,0.1770708 0.2656062,0.4839935 0.2656062,0.9207682 V 12.369256 C 7.0727366,11.330441 7.7574104,10.421477 8.5601313,9.6423657 9.3628523,8.8632542 10.218695,8.2612135 11.127658,7.8362436 12.036621,7.4112737 12.93378,7.1987887 13.819134,7.1987887 Z"
       style="font-style:normal;font-variant:normal;font-weight:normal;font-stretch:normal;font-size:36.26409912px;font-family:'Courier Prime';-inkscape-font-specification:'Courier Prime';fill:#931cab;fill-opacity:1;stroke-width:0.28784621"
       id="path10"
       inkscape:connector-curvature="0"
       sodipodi:nodetypes="scscscsccscscscsscscsccscscsscscsss" />
  </g>

 </g><g transform="translate(283.9, 153.5) rotate(95) "> <g
     aria-label="a"
     transform="scale(0.86789654,1.1522111)"
     style="font-style:normal;font-weight:normal;font-size:11.56789494px;line-height:1.25;font-family:sans-serif;letter-spacing:0px;word-spacing:0px;fill:#931cab;fill-opacity:1;stroke:none;stroke-width:0.28919727"
     id="text826">
    <path
       d="m 9.3972559,4.9398581 q 3.3445561,0 5.0168341,1.494376 1.672278,1.4943761 1.672278,4.4297579 v 7.080496 q 0,1.405425 1.174152,1.405425 h 0.622657 q 0.604866,0 0.853929,0.284643 0.266853,0.266853 0.266853,0.92509 0,0.658237 -0.266853,0.94288 -0.249063,0.266853 -0.853929,0.266853 h -1.138572 q -1.156363,0 -1.992502,-0.569286 -0.818348,-0.587077 -1.067411,-1.707859 -1.458796,1.280894 -3.166654,1.974711 -1.6900682,0.693818 -3.5936186,0.693818 -1.7968093,0 -3.1844442,-0.604867 -1.3698447,-0.622656 -2.1526131,-1.796809 -0.78276835,-1.174153 -0.78276835,-2.79306 0,-2.81085 2.01029155,-4.145114 2.0102916,-1.352055 5.1947358,-1.352055 2.8286399,0 5.4082179,0.9073 v -1.512166 q 0,-1.7256489 -0.97846,-2.5262074 -0.960671,-0.8183488 -3.1132838,-0.8183488 -1.3342643,0 -2.7752698,0.373594 -1.4410055,0.373594 -2.7396894,1.031831 -0.3024332,0.1601118 -0.5514959,0.1601118 -0.5870763,0 -0.9784605,-0.8539292 -0.1956921,-0.4269646 -0.1956921,-0.7116076 0,-0.6226567 0.6582371,-0.9606703 Q 4.2381006,5.7759971 5.9459589,5.3668227 7.6716074,4.9398581 9.3972559,4.9398581 Z M 8.0274112,13.977275 q -2.0458719,0 -3.2378147,0.711608 -1.1741526,0.693817 -1.1741526,2.223774 0,1.298683 0.8895096,2.028081 0.9072997,0.711608 2.5262071,0.711608 3.5402484,0 6.3866784,-2.935382 v -1.93913 Q 12.208106,14.386449 10.820471,14.190757 9.4328363,13.977275 8.0274112,13.977275 Z"
       style="font-style:normal;font-variant:normal;font-weight:normal;font-stretch:normal;font-size:36.43431091px;font-family:'Courier Prime';-inkscape-font-specification:'Courier Prime';fill:#931cab;fill-opacity:1;stroke-width:0.28919727"
       id="path10" />
  </g>

 </g><g transform="translate(281.6, 176.7) rotate(105) "> <g
     aria-label="p"
     transform="scale(0.93866626,1.0653414)"
     style="font-style:normal;font-weight:normal;font-size:11.3190527px;line-height:1.25;font-family:sans-serif;letter-spacing:0px;word-spacing:0px;fill:#931cab;fill-opacity:1;stroke:none;stroke-width:0.28297618"
     id="text826">
    <path
       d="m 9.9323105,7.0769945 c 1.4390195,0 2.7271745,0.3423474 3.8644645,1.0270423 1.13729,0.6730899 2.030875,1.6479097 2.680755,2.9244592 0.649879,1.264945 0.974819,2.756188 0.974819,4.473727 0,1.71754 -0.32494,3.214585 -0.974819,4.491135 -0.64988,1.264945 -1.543465,2.239764 -2.680755,2.924459 -1.13729,0.67309 -2.425445,1.009635 -3.8644645,1.009635 -2.1817397,0 -4.0211319,-0.957412 -5.5181767,-2.872237 v 6.875961 H 4.74487 c 0.3945699,0 0.6730899,0.08704 0.8355599,0.261113 0.1740749,0.18568 0.2611124,0.493212 0.2611124,0.922597 0,0.429385 -0.087038,0.731115 -0.2611124,0.90519 -0.16247,0.18568 -0.44099,0.27852 -0.8355599,0.27852 H 1.2259535 c -0.3945699,0 -0.67889235,-0.09284 -0.85296733,-0.27852 -0.16246995,-0.174075 -0.24370493,-0.475805 -0.24370493,-0.90519 0,-0.429385 0.081235,-0.736917 0.24370493,-0.922597 C 0.54706115,28.018214 0.8313836,27.931176 1.2259535,27.931176 H 1.8030092 V 9.8273791 H 1.5741035 c -0.3945699,0 -0.6788924,-0.087037 -0.85296738,-0.2611125 -0.16246997,-0.18568 -0.24370496,-0.4932125 -0.24370496,-0.9225974 0,-0.4293849 0.081235,-0.7311149 0.24370496,-0.9051898 0.17407498,-0.18568 0.45839748,-0.27852 0.85296738,-0.27852 h 1.569283 c 0.3945699,0 0.6730899,0.09284 0.8355599,0.27852 0.174075,0.1740749 0.2611125,0.4758049 0.2611125,0.9051898 V 10.036269 C 4.9711738,9.0846591 5.8183386,8.3535443 6.7815535,7.8429244 7.7447684,7.3323045 8.7950207,7.0769945 9.9323105,7.0769945 Z m -0.174075,2.5763096 c -1.0328448,0 -1.9554421,0.2321 -2.767792,0.6962999 -0.8007449,0.4642 -1.4332174,1.13729 -1.8974173,2.01927 -0.4525949,0.881979 -0.6788924,1.926429 -0.6788924,3.133349 0,1.20692 0.2262975,2.25137 0.6788924,3.13335 0.4641999,0.88198 1.0966724,1.55507 1.8974173,2.019269 0.8123499,0.4642 1.7349472,0.6963 2.767792,0.6963 1.0328455,0 1.9206275,-0.243705 2.6633475,-0.731115 0.742719,-0.499015 1.305562,-1.189512 1.688527,-2.071492 0.39457,-0.88198 0.591855,-1.897417 0.591855,-3.046312 0,-1.148895 -0.197285,-2.164332 -0.591855,-3.046312 -0.382965,-0.88198 -0.945808,-1.566675 -1.688527,-2.054085 C 11.678863,9.9028114 10.791081,9.6533041 9.7582355,9.6533041 Z"
       style="font-style:normal;font-variant:normal;font-weight:normal;font-stretch:normal;font-size:35.65055466px;font-family:'Courier Prime';-inkscape-font-specification:'Courier Prime';fill:#931cab;fill-opacity:1;stroke-width:0.28297618"
       id="path10"
       inkscape:connector-curvature="0"
       sodipodi:nodetypes="sccsccsccscscsscscsccscscsscscsssccsccsccsccs" />
  </g>

 </g><g transform="translate(274.7, 199) rotate(115) "> <g
     aria-label="h"
     transform="scale(0.94733542,1.0555923)"
     style="font-style:normal;font-weight:normal;font-size:11.4149971px;line-height:1.25;font-family:sans-serif;letter-spacing:0px;word-spacing:0px;fill:#931cab;fill-opacity:1;stroke:none;stroke-width:0.28537482"
     id="text826">
    <path
       d="m 3.623558,0.77157807 c 0.3979145,0 0.6787953,0.0936269 0.8426424,0.28088083 0.1755505,0.1755505 0.2633258,0.479838 0.2633258,0.9128626 V 10.707737 C 5.4902451,9.5725102 6.3679976,8.7064609 7.3627838,8.1095892 8.3692733,7.5010141 9.4518347,7.1967266 10.610468,7.1967266 c 1.065007,0 1.989573,0.2340673 2.773698,0.702202 0.784125,0.4564313 1.386849,1.1176716 1.80817,1.9837207 0.421321,0.8660487 0.631982,1.8783907 0.631982,3.0370237 v 8.496645 h 0.515871 c 0.397914,0 0.678795,0.09363 0.842643,0.28088 0.17555,0.175551 0.263325,0.479838 0.263325,0.912863 0,0.433025 -0.08778,0.743164 -0.263325,0.930418 -0.163848,0.17555 -0.444729,0.263325 -0.842643,0.263325 h -4.764193 c -0.397915,0 -0.684647,-0.08778 -0.860198,-0.263325 -0.163847,-0.187254 -0.24577,-0.497393 -0.24577,-0.930418 0,-0.433025 0.08192,-0.737312 0.24577,-0.912863 0.175551,-0.187253 0.462283,-0.28088 0.860198,-0.28088 h 1.615065 v -8.233319 c 0,-1.0416 -0.239919,-1.866687 -0.719758,-2.475262 -0.479838,-0.608575 -1.187892,-0.9128629 -2.124161,-0.9128629 -0.9947859,0 -1.9252035,0.2867329 -2.7912527,0.8601979 -0.8543458,0.573465 -1.5389928,1.363442 -2.0539409,2.369931 -0.5149481,1.00649 -0.7724222,2.130013 -0.7724222,3.37057 v 5.020745 h 1.6150646 c 0.3979145,0 0.6787953,0.09363 0.8426425,0.28088 0.1755505,0.175551 0.2633257,0.479838 0.2633257,0.912863 0,0.433025 -0.087775,0.743164 -0.2633257,0.930418 -0.1638472,0.17555 -0.444728,0.263325 -0.8426425,0.263325 H 1.9102703 c -0.3979144,0 -0.6846469,-0.08778 -0.8601974,-0.263325 -0.16384718,-0.187254 -0.24577075,-0.497393 -0.24577075,-0.930418 0,-0.433025 0.0819236,-0.737312 0.24577075,-0.912863 0.1755505,-0.187253 0.462283,-0.28088 0.8601974,-0.28088 H 2.0962686 V 3.1590649 H 1.7347198 c -0.3979145,0 -0.6846469,-0.087775 -0.86019744,-0.2633257 C 0.71067522,2.7084853 0.62875165,2.3983461 0.62875165,1.9653215 c 0,-0.4330246 0.0819236,-0.7373121 0.24577071,-0.9128626 C 1.0500729,0.86520501 1.3368053,0.77157807 1.7347198,0.77157807 Z"
       style="font-style:normal;font-variant:normal;font-weight:normal;font-stretch:normal;font-size:35.95274353px;font-family:'Courier Prime';-inkscape-font-specification:'Courier Prime';fill:#931cab;fill-opacity:1;stroke-width:0.28537482"
       id="path10"
       inkscape:connector-curvature="0"
       sodipodi:nodetypes="scsccscsscscscsscscscscscsscscscsscscsccscscss" />
  </g>

 </g><g transform="translate(264.4, 220) rotate(125) "> <g
     aria-label="y"
     transform="scale(0.87299658,1.1454799)"
     style="font-style:normal;font-weight:normal;font-size:10.52716446px;line-height:1.25;font-family:sans-serif;letter-spacing:0px;word-spacing:0px;fill:#931cab;fill-opacity:1;stroke:none;stroke-width:0.263179"
     id="text826">
    <path
       d="m 17.841713,6.9380575 q 0.550448,0 0.777103,0.2590345 0.242845,0.2428449 0.242845,0.8418622 0,0.5990173 -0.242845,0.8580518 -0.226655,0.2428449 -0.777103,0.2428449 H 16.837954 L 10.216384,22.706784 Q 9.1640567,24.860008 8.160298,26.090422 7.1565392,27.320836 5.893746,27.887474 4.6471424,28.470302 2.8500904,28.53506 2.2834524,28.55125 1.9758489,28.243646 1.6682454,27.952232 1.6682454,27.191319 q 0,-1.052328 0.8580519,-1.100897 1.5542071,-0.08095 2.4608279,-0.518069 0.9228104,-0.437121 1.6837243,-1.505638 0.7771035,-1.052328 1.8941899,-3.30269 L 2.6396249,9.1398509 H 1.6196765 q -0.5504484,0 -0.79329324,-0.2428449 -0.2266552,-0.2590345 -0.2266552,-0.8580518 0,-0.5990173 0.2266552,-0.8418622 Q 1.0692281,6.9380575 1.6196765,6.9380575 h 5.7311386 q 0.5504483,0 0.7771035,0.2590345 0.2428449,0.2428449 0.2428449,0.8418622 0,0.5990173 -0.2428449,0.8580518 Q 7.9012634,9.1398509 7.3508151,9.1398509 H 5.278539 L 9.8440223,18.238438 14.19904,9.1398509 h -1.440879 q -0.550449,0 -0.793294,-0.2428449 -0.226655,-0.2590345 -0.226655,-0.8580518 0,-0.5990173 0.226655,-0.8418622 0.242845,-0.2590345 0.793294,-0.2590345 z"
       style="font-style:normal;font-variant:normal;font-weight:normal;font-stretch:normal;font-size:33.15641785px;font-family:'Courier Prime';-inkscape-font-specification:'Courier Prime';fill:#931cab;fill-opacity:1;stroke-width:0.263179"
       id="path10" />
  </g>

 </g>  <g transform="translate(87, 138) scale(1.4, 1) "> <g
     aria-label="A"
     transform="scale(0.82496284,1.2121758)"
     style="font-style:normal;font-weight:normal;font-size:8.5315094px;line-height:1.25;font-family:sans-serif;letter-spacing:0px;word-spacing:0px;fill:#931cab;fill-opacity:1;stroke:none;stroke-width:0.21328768"
     id="text826">
    <path
       d="m 8.1687161,0.64726308 h 4.1112469 l 6.207177,18.19159592 1.558512,0.268709 v 1.612254 H 12.118738 V 19.107568 L 14.134055,18.838859 13.08609,15.345643 H 6.884138 l -1.047965,3.520087 1.4189327,0.241838 v 1.612254 H 0.40302735 L 0.37615646,19.107568 1.9884102,18.838859 Z M 9.9936977,4.7424403 C 9.1838524,8.2188983 8.3956311,10.011978 7.394685,13.46468 h 5.153987 C 11.50397,10.011304 10.797551,8.2258019 9.9936977,4.7424403 Z"
       style="font-style:normal;font-variant:normal;font-weight:bold;font-stretch:normal;font-size:26.87089539px;font-family:Merriweather;-inkscape-font-specification:'Merriweather Bold';fill:#931cab;fill-opacity:1;stroke-width:0.21328768"
       id="path10"
       inkscape:connector-curvature="0"
       sodipodi:nodetypes="ccccccccccccccccccccc" />
  </g>

 </g><g transform="translate(112.2, 138) scale(1.4, 1) "> <g
     aria-label="r"
     transform="scale(0.95482061,1.0473171)"
     style="font-style:normal;font-weight:normal;font-size:11.51385212px;line-height:1.25;font-family:sans-serif;letter-spacing:0px;word-spacing:0px;fill:#931cab;fill-opacity:1;stroke:none;stroke-width:0.28784621"
     id="text826">
    <path
       d="m 13.819134,7.1987887 c 0.920768,0 1.782513,0.2360944 2.585234,0.7082832 0.472189,0.2833133 0.708283,0.6492596 0.708283,1.0978389 0,0.212485 -0.05312,0.4603841 -0.159364,0.7436974 -0.247899,0.6728688 -0.590236,1.0093038 -1.027011,1.0093038 -0.177071,0 -0.342337,-0.04722 -0.495798,-0.141657 -0.578431,-0.318727 -1.198179,-0.478091 -1.859243,-0.478091 -1.062425,0 -1.999837,0.431525 -3.074067,1.175222 -1.0742296,0.731893 -1.894126,1.652008 -2.5906045,2.879699 -0.6846737,1.227691 -1.0006967,2.53232 -1.0270106,3.913265 v 3.435173 h 5.7709141 c 0.40136,0 0.684673,0.09444 0.84994,0.283313 0.177071,0.177071 0.265606,0.483994 0.265606,0.920769 0,0.436775 -0.08853,0.7496 -0.265606,0.938475 -0.165267,0.177071 -0.44858,0.265606 -0.84994,0.265606 H 1.7053087 c -0.4013605,0 -0.6905761,-0.08854 -0.86764691,-0.265606 -0.16526607,-0.188875 -0.24789911,-0.5017 -0.24789911,-0.938475 0,-0.436775 0.082633,-0.743698 0.24789911,-0.920769 C 1.0147326,21.635961 1.3039482,21.541523 1.7053087,21.541523 H 4.027119 V 9.9965073 H 1.7783198 c -0.4013605,0 -0.6905761,-0.088535 -0.86764687,-0.2656062 C 0.74540686,9.5420256 0.66277382,9.2292005 0.66277382,8.7924259 c 0,-0.4367747 0.082633,-0.7436974 0.24789911,-0.9207682 C 1.0877437,7.6827822 1.3769593,7.5883445 1.7783198,7.5883445 h 3.6122443 c 0.4013605,0 0.6846737,0.094438 0.8499398,0.2833132 0.1770708,0.1770708 0.2656062,0.4839935 0.2656062,0.9207682 V 12.369256 C 7.0727366,11.330441 7.7574104,10.421477 8.5601313,9.6423657 9.3628523,8.8632542 10.218695,8.2612135 11.127658,7.8362436 12.036621,7.4112737 12.93378,7.1987887 13.819134,7.1987887 Z"
       style="font-style:normal;font-variant:normal;font-weight:normal;font-stretch:normal;font-size:36.26409912px;font-family:'Courier Prime';-inkscape-font-specification:'Courier Prime';fill:#931cab;fill-opacity:1;stroke-width:0.28784621"
       id="path10"
       inkscape:connector-curvature="0"
       sodipodi:nodetypes="scscscsccscscscsscscsccscscsscscsss" />
  </g>

 </g><g transform="translate(137.4, 138) scale(1.4, 1) "> <g
     aria-label="r"
     transform="scale(0.95482061,1.0473171)"
     style="font-style:normal;font-weight:normal;font-size:11.51385212px;line-height:1.25;font-family:sans-serif;letter-spacing:0px;word-spacing:0px;fill:#931cab;fill-opacity:1;stroke:none;stroke-width:0.28784621"
     id="text826">
    <path
       d="m 13.819134,7.1987887 c 0.920768,0 1.782513,0.2360944 2.585234,0.7082832 0.472189,0.2833133 0.708283,0.6492596 0.708283,1.0978389 0,0.212485 -0.05312,0.4603841 -0.159364,0.7436974 -0.247899,0.6728688 -0.590236,1.0093038 -1.027011,1.0093038 -0.177071,0 -0.342337,-0.04722 -0.495798,-0.141657 -0.578431,-0.318727 -1.198179,-0.478091 -1.859243,-0.478091 -1.062425,0 -1.999837,0.431525 -3.074067,1.175222 -1.0742296,0.731893 -1.894126,1.652008 -2.5906045,2.879699 -0.6846737,1.227691 -1.0006967,2.53232 -1.0270106,3.913265 v 3.435173 h 5.7709141 c 0.40136,0 0.684673,0.09444 0.84994,0.283313 0.177071,0.177071 0.265606,0.483994 0.265606,0.920769 0,0.436775 -0.08853,0.7496 -0.265606,0.938475 -0.165267,0.177071 -0.44858,0.265606 -0.84994,0.265606 H 1.7053087 c -0.4013605,0 -0.6905761,-0.08854 -0.86764691,-0.265606 -0.16526607,-0.188875 -0.24789911,-0.5017 -0.24789911,-0.938475 0,-0.436775 0.082633,-0.743698 0.24789911,-0.920769 C 1.0147326,21.635961 1.3039482,21.541523 1.7053087,21.541523 H 4.027119 V 9.9965073 H 1.7783198 c -0.4013605,0 -0.6905761,-0.088535 -0.86764687,-0.2656062 C 0.74540686,9.5420256 0.66277382,9.2292005 0.66277382,8.7924259 c 0,-0.4367747 0.082633,-0.7436974 0.24789911,-0.9207682 C 1.0877437,7.6827822 1.3769593,7.5883445 1.7783198,7.5883445 h 3.6122443 c 0.4013605,0 0.6846737,0.094438 0.8499398,0.2833132 0.1770708,0.1770708 0.2656062,0.4839935 0.2656062,0.9207682 V 12.369256 C 7.0727366,11.330441 7.7574104,10.421477 8.5601313,9.6423657 9.3628523,8.8632542 10.218695,8.2612135 11.127658,7.8362436 12.036621,7.4112737 12.93378,7.1987887 13.819134,7.1987887 Z"
       style="font-style:normal;font-variant:normal;font-weight:normal;font-stretch:normal;font-size:36.26409912px;font-family:'Courier Prime';-inkscape-font-specification:'Courier Prime';fill:#931cab;fill-opacity:1;stroke-width:0.28784621"
       id="path10"
       inkscape:connector-curvature="0"
       sodipodi:nodetypes="scscscsccscscscsscscsccscscsscscsss" />
  </g>

 </g><g transform="translate(162.6, 138) scale(1.4, 1) "> <g
     aria-label="o"
     transform="scale(0.94371432,1.0596427)"
     style="font-style:normal;font-weight:normal;font-size:11.37992573px;line-height:1.25;font-family:sans-serif;letter-spacing:0px;word-spacing:0px;fill:#931cab;fill-opacity:1;stroke:none;stroke-width:0.28449804"
     id="text826">
    <path
       d="m 9.0346344,7.1150545 q 2.3976526,0 4.3227756,1.085069 1.925122,1.0850691 3.010191,3.0276925 1.10257,1.925123 1.10257,4.357778 0,2.432654 -1.10257,4.375278 -1.085069,1.925123 -3.010191,3.010192 -1.925123,1.085069 -4.3227756,1.085069 -2.3976526,0 -4.3227751,-1.085069 -1.9251226,-1.085069 -3.0276928,-3.010192 -1.08506902,-1.942624 -1.08506902,-4.375278 0,-2.432655 1.08506902,-4.357778 1.1025702,-1.9426234 3.0276928,-3.0276925 1.9251225,-1.085069 4.3227751,-1.085069 z m 0,2.5901648 q -1.6976081,0 -2.9926905,0.7525477 -1.2775813,0.735047 -1.9776259,2.082633 -0.7000445,1.330084 -0.7000445,3.045194 0,1.715109 0.7000445,3.062695 0.7000446,1.330084 1.9776259,2.082632 1.2950824,0.735047 2.9926905,0.735047 1.6976076,0 2.9751896,-0.735047 1.295082,-0.752548 1.995127,-2.082632 0.700044,-1.347586 0.700044,-3.062695 0,-1.71511 -0.700044,-3.045194 Q 13.304906,11.192814 12.009824,10.457767 10.732242,9.7052193 9.0346344,9.7052193 Z"
       style="font-style:normal;font-variant:normal;font-weight:normal;font-stretch:normal;font-size:35.84228134px;font-family:'Courier Prime';-inkscape-font-specification:'Courier Prime';fill:#931cab;fill-opacity:1;stroke-width:0.28449804"
       id="path10" />
  </g>

 </g><g transform="translate(187.8, 138) scale(1.4, 1) "> <g
     aria-label="w"
     transform="scale(0.85163651,1.1742099)"
     style="font-style:normal;font-weight:normal;font-size:10.08665943px;line-height:1.25;font-family:sans-serif;letter-spacing:0px;word-spacing:0px;fill:#931cab;fill-opacity:1;stroke:none;stroke-width:0.25216642"
     id="text826">
    <path
       d="m 18.86057,6.7683008 q 0.527415,0 0.744586,0.2481953 0.232683,0.2326831 0.232683,0.8066347 0,0.5739517 -0.232683,0.822147 -0.217171,0.2326831 -0.744586,0.2326831 H 18.488277 L 15.432372,20.434555 q -0.155122,0.558439 -0.465366,0.77561 -0.294732,0.232683 -0.884196,0.232683 -0.667025,0 -1.05483,-0.248195 -0.372293,-0.232683 -0.558439,-0.760098 l -2.373368,-6.732298 -2.4043919,6.732298 q -0.1861465,0.527415 -0.5894639,0.760098 -0.3878051,0.248195 -1.05483,0.248195 -0.5894639,0 -0.8841958,-0.232683 -0.2947319,-0.217171 -0.4343418,-0.77561 L 1.7350937,8.8779609 H 1.455874 q -0.527415,0 -0.7600981,-0.2326831 -0.21717089,-0.2481953 -0.21717089,-0.822147 0,-0.5739516 0.21717089,-0.8066347 Q 0.928459,6.7683008 1.455874,6.7683008 h 4.5605888 q 0.527415,0 0.7445859,0.2481953 0.2326831,0.2326831 0.2326831,0.8066347 0,0.5739517 -0.2326831,0.822147 Q 6.5438778,8.8779609 6.0164628,8.8779609 H 4.1084614 l 2.2337577,9.0281041 2.5905385,-7.197664 q 0.1085854,-0.325756 0.4033174,-0.527415 0.2947319,-0.2016585 0.77561,-0.2016585 0.977269,0 1.19444,0.6204885 l 2.575027,7.306249 2.295806,-9.0281041 h -1.566733 q -0.527415,0 -0.760098,-0.2326831 -0.217171,-0.2481953 -0.217171,-0.822147 0,-0.5739516 0.217171,-0.8066347 0.232683,-0.2481953 0.760098,-0.2481953 z"
       style="font-style:normal;font-variant:normal;font-weight:normal;font-stretch:normal;font-size:31.7689991px;font-family:'Courier Prime';-inkscape-font-specification:'Courier Prime';fill:#931cab;fill-opacity:1;stroke-width:0.25216642"
       id="path10" />
  </g>

 </g> </svg>
